# AST/ASF file generated using VICON BodyLanguage
# -----------------------------------------------
:version 1.10
:name VICON
:units
  mass 1.0
  length 0.45
  angle deg
:documentation
   .ast/.asf automatically generated from VICON data using
   VICON BodyBuilder and BodyLanguage model FoxedUp or BRILLIANT.MOD
:root
   order TX TY TZ RX RY RZ
   axis XYZ
   position 0 0 0  
   orientation 0 0 0 
:bonedata
  begin
     id 1 
     name lhipjoint
     direction 0.589753 -0.68606 0.426044 
     length 2.54082 
     axis 0 0 0  XYZ
  end
  begin
     id 2 
     name lfemur
     direction 0.34202 -0.939693 0  
     length 7.04539  
     axis 0 0 20  XYZ
    dof rx ry rz
    limits (-160.0 20.0)
           (-70.0 70.0)
           (-60.0 70.0)
  end
  begin
     id 3 
     name ltibia
     direction 0.34202 -0.939693 0   
     length 7.83772   
     axis 0 0 20   XYZ
    dof rx
    limits (-10.0 170.0)
  end
  begin
     id 4 
     name lfoot
     direction 0.0596604 -0.163915 0.984669   
     length 2.39542   
     axis -90 7.62852e-016 20   XYZ
    dof rx rz
    limits (-45.0 90.0)
           (-70.0 20.0)
  end
  begin
     id 5 
     name ltoes
     direction 1.53514e-011 -4.21954e-011 1   
     length 1.2047   
     axis -90 7.62852e-016 20   XYZ
    dof rx
    limits (-90.0 20.0)
  end
  begin
     id 6 
     name rhipjoint
     direction -0.580585 -0.69168 0.429534   
     length 2.52018  
     axis 0 0 0  XYZ 
  end
  begin
     id 7 
     name rfemur
     direction -0.34202 -0.939693 0   
     length 7.0101   
     axis 0 0 -20   XYZ
    dof rx ry rz
    limits (-160.0 20.0)
           (-70.0 70.0)
           (-70.0 60.0)
  end
  begin
     id 8 
     name rtibia
     direction -0.34202 -0.939693 0   
     length 7.70628   
     axis 0 0 -20   XYZ
    dof rx
    limits (-10.0 170.0)
 end
 begin
     id 9 
     name rfoot
     direction -0.0696237 -0.19129 0.979061   
     length 2.52466  
     axis -90 -7.62852e-016 -20   XYZ
    dof rx rz
    limits (-45.0 90.0)
           (-20.0 70.0)
  end
  begin
     id 10 
     name rtoes
     direction -1.53519e-011 -4.21793e-011 1   
     length 1.266   
     axis -90 -7.62852e-016 -20   XYZ
    dof rx
    limits (-90.0 20.0)
  end
  begin
     id 11 
     name lowerback
     direction 0.00381965 0.995707 -0.0924856   
     length 2.20825   
     axis 0 0 0   XYZ
    dof rx ry rz
    limits (-20.0 45.0)
           (-30.0 30.0)
           (-30.0 30.0)
  end
  begin
     id 12 
     name upperback
     direction -0.0139043 0.999634 -0.0231929   
     length 2.21517   
     axis 0 0 0   XYZ
    dof rx ry rz
    limits (-20.0 45.0)
           (-30.0 30.0)
           (-30.0 30.0)
  end
  begin
     id 13 
     name thorax
     direction -0.0143933 0.999691 0.0202892   
     length 2.22911   
     axis 0 0 0   XYZ
    dof rx ry rz
    limits (-20.0 45.0)
           (-30.0 30.0)
           (-30.0 30.0)
  end
  begin
     id 14 
     name lowerneck
     direction -0.0251153 0.981819 0.188153   
     length 1.61782   
     axis 0 0 0   XYZ
    dof rx ry rz
    limits (-20.0 45.0)
           (-30.0 30.0)
           (-30.0 30.0)
  end
  begin
     id 15 
     name upperneck
     direction 0.0563891 0.969357 -0.239095   
     length 1.64526   
     axis 0 0 0   XYZ
    dof rx ry rz
    limits (-20.0 45.0)
           (-30.0 30.0)
           (-30.0 30.0)
  end
  begin
     id 16
     name head
     direction 0.0208328 0.99459 -0.101773  
     length 1.67436  
     axis 0 0 0   XYZ
    dof rx ry rz
    limits (-20.0 45.0)
           (-30.0 30.0)
           (-30.0 30.0)
  end
  begin
     id 17 
     name lclavicle
     direction 0.917689 0.397224 0.00772059  
     length 3.31102  
     axis 0 0 0   XYZ
    dof ry rz
    limits (-20.0 10.0)
           (0.0 20.0)
  end
  begin
     id 18 
     name lhumerus
     direction 1 -4.4896e-011 2.32308e-027   
     length 5.25537   
     axis 180 -30 -90   XYZ
    dof rx ry rz
    limits (-60.0 90.0)
           (-90.0 90.0)
           (-90.0 90.0)
  end
  begin
     id 19
     name lradius
     direction 1 -4.49005e-011 -2.04271e-027   
     length 3.38855   
     axis 180 -30 -90   XYZ
    dof rx
    limits (-10.0 170.0)
  end
  begin
     id 20
     name lwrist
     direction 1 -4.48892e-011 2.56952e-028   
     length 1.69428   
     axis -5.12785e-016 90 90   XYZ
    dof ry
    limits (-180.0 0.0)
 end
  begin
     id 21 
     name lhand
     direction 1 -4.48966e-011 5.13905e-028   
     length 0.614516   
     axis -3.27915e-016 90 90   XYZ
    dof rx rz
    limits (-90.0 90.0)
           (-45.0 45.0)
  end
  begin
     id 22 
     name lfingers
     direction 1 -4.48979e-011 1.02781e-027   
     length 0.495439   
     axis -6.5583e-016 90 90   XYZ
    dof rx
    limits (0.0 90.0)
  end
  begin
     id 23
     name lthumb
     direction 0.707107 -6.35001e-011 0.707107   
     length 0.711354   
     axis -90 45 2.85299e-015   XYZ
    dof rx rz
    limits (-45.0 45.0)
           (-45.0 45.0)
  end
  begin
     id 24 
     name rclavicle
     direction -0.938556 0.342765 -0.0403177   
     length 3.27019  
     axis 0 0 0   XYZ 
    dof ry rz
    limits (-10.0 20.0)
           (-20.0 0.0)
  end
  begin
     id 25 
     name rhumerus
     direction -1 -4.48966e-011 2.52291e-027  
     length 5.38183   
     axis 180 30 90   XYZ
    dof rx ry rz
    limits (-90.0 60.0)
           (-90.0 90.0)
           (-90.0 90.0)
  end
  begin
     id 26 
     name rradius
     direction -1 -4.4896e-011 1.5797e-027   
     length 3.16988   
     axis 180 30 90   XYZ
    dof rx
    limits (-10.0 170.0)
  end
  begin
     id 27 
     name rwrist
     direction -1 -4.48947e-011 2.56952e-028   
     length 1.58494   
     axis -5.12785e-016 -90 -90   XYZ
    dof ry
    limits (-180.0 0.0)
  end
  begin
     id 28
     name rhand
     direction -1 -4.49098e-011 5.13905e-028   
     length 0.637679   
     axis -3.27915e-016 -90 -90   XYZ
    dof rx rz
    limits (-90.0 90.0)
           (-45.0 45.0)
  end
  begin
     id 29
     name rfingers
     direction -1 -4.49026e-011 1.02781e-027   
     length 0.514113   
     axis -6.5583e-016 -90 -90   XYZ
    dof rx
    limits (0.0 90.0)
  end
  begin
     id 30
     name rthumb
     direction -0.707107 -6.3491e-011 0.707107   
     length 0.738167   
     axis -90 -45 -2.85299e-015   XYZ
    dof rx rz
    limits (-45.0 45.0)
           (-45.0 45.0)
  end
:hierarchy
  begin
    root lhipjoint rhipjoint lowerback
    lhipjoint lfemur
    lfemur ltibia
    ltibia lfoot
    lfoot ltoes
    rhipjoint rfemur
    rfemur rtibia
    rtibia rfoot
    rfoot rtoes
    lowerback upperback
    upperback thorax
    thorax lowerneck lclavicle rclavicle
    lowerneck upperneck
    upperneck head
    lclavicle lhumerus
    lhumerus lradius
    lradius lwrist
    lwrist lhand lthumb
    lhand lfingers
    rclavicle rhumerus
    rhumerus rradius
    rradius rwrist
    rwrist rhand rthumb
    rhand rfingers
  end

#!OML:ASF H:\Swim\Project 1\Capture day 1\Session 1\swimmer.ASF
:FULLY-SPECIFIED
:DEGREES
221
root 8.04224 15.5751 30.0559 -177.272 -8.39511 178.433
lowerback 11.2487 -0.621654 0.519222
upperback 4.01426 -1.19995 -1.49741
thorax -2.15913 -0.752049 -1.68468
lowerneck -30.9847 -1.79023 -5.10393
upperneck 16.5 -2.42078 8.36301
head 10.486 -0.39945 3.46075
rclavicle 1.31695e-014 -3.97569e-016
rhumerus 38.876 -14.0299 -60.6284
rradius 71.4267
rwrist 8.71252
rhand 42.8976 -6.49943
rfingers 7.12502
rthumb 64.7492 -14.0884
lclavicle 1.31695e-014 -3.97569e-016
lhumerus 35.3767 8.48726 50.2417
lradius 76.4753
lwrist -7.07978
lhand 43.1381 11.4114
lfingers 7.12502
lthumb 64.9399 18.6881
rfemur -26.6154 -14.5627 6.37255
rtibia 51.474
rfoot -18.5894 -17.1221
rtoes -10.8036
lfemur -31.5799 3.61988 -11.2808
ltibia 52.5055
lfoot -18.5034 6.82511
ltoes -12.6192
222
root 8.04113 15.5744 30.0515 -177.265 -8.39765 178.438
lowerback 11.2535 -0.621275 0.523458
upperback 4.00872 -1.19863 -1.5
thorax -2.16761 -0.751221 -1.68981
lowerneck -30.8932 -1.80124 -5.14189
upperneck 16.5282 -2.42594 8.37716
head 10.4824 -0.403222 3.47109
rclavicle 1.26725e-014 -3.49861e-014
rhumerus 38.9033 -14.067 -60.6661
rradius 71.4477
rwrist 8.69151
rhand 42.9376 -6.54167
rfingers 7.12502
rthumb 64.781 -14.079
lclavicle 1.26725e-014 -3.49861e-014
lhumerus 35.3946 8.4994 50.2615
lradius 76.4731
lwrist -7.05529
lhand 43.2669 11.4284
lfingers 7.12502
lthumb 65.0416 18.5359
rfemur -26.6121 -14.5567 6.37285
rtibia 51.4869
rfoot -18.5996 -17.1355
rtoes -10.7927
lfemur -31.5824 3.6186 -11.2774
ltibia 52.5273
lfoot -18.5267 6.82618
ltoes -12.5596
223
root 8.03991 15.5734 30.0469 -177.26 -8.4032 178.441
lowerback 11.2619 -0.622058 0.529328
upperback 4.00242 -1.19871 -1.50308
thorax -2.17892 -0.751092 -1.69613
lowerneck -30.7522 -1.81668 -5.20849
upperneck 16.52 -2.43209 8.41948
head 10.4583 -0.407267 3.49495
rclavicle 3.41413e-014 -3.18055e-015
rhumerus 38.9265 -14.1007 -60.7002
rradius 71.4655
rwrist 8.67313
rhand 42.9719 -6.58644
rfingers 7.12502
rthumb 64.8082 -14.0794
lclavicle 3.41413e-014 -3.18055e-015
lhumerus 35.4123 8.51082 50.2841
lradius 76.4711
lwrist -7.03607
lhand 43.3833 11.4441
lfingers 7.12502
lthumb 65.1334 18.3973
rfemur -26.6048 -14.5566 6.37001
rtibia 51.5026
rfoot -18.6089 -17.1466
rtoes -10.7881
lfemur -31.5844 3.61396 -11.2756
ltibia 52.5542
lfoot -18.5503 6.83317
ltoes -12.5185
224
root 8.03861 15.5721 30.0423 -177.259 -8.40757 178.446
lowerback 11.2736 -0.622404 0.53817
upperback 3.99552 -1.1979 -1.50635
thorax -2.19265 -0.750531 -1.70438
lowerneck -30.6481 -1.80816 -5.23777
upperneck 16.5311 -2.41341 8.42998
head 10.4443 -0.400543 3.50609
rclavicle 1.49089e-016 -2.76311e-014
rhumerus 38.9444 -14.1308 -60.7302
rradius 71.4805
rwrist 8.65561
rhand 43.0023 -6.62929
rfingers 7.12502
rthumb 64.8323 -14.0829
lclavicle 1.49089e-016 -2.76311e-014
lhumerus 35.4287 8.52012 50.3082
lradius 76.4696
lwrist -7.01822
lhand 43.478 11.4598
lfingers 7.12502
lthumb 65.2079 18.2866
rfemur -26.5952 -14.5565 6.36665
rtibia 51.5223
rfoot -18.6215 -17.1506
rtoes -10.7686
lfemur -31.5847 3.6088 -11.2722
ltibia 52.5865
lfoot -18.577 6.84217
ltoes -12.4671
225
root 8.03735 15.5704 30.0377 -177.259 -8.41349 178.451
lowerback 11.2856 -0.623749 0.547709
upperback 3.98889 -1.19833 -1.50881
thorax -2.20636 -0.750591 -1.71203
lowerneck -30.5757 -1.77085 -5.23551
upperneck 16.5362 -2.36347 8.42234
head 10.4301 -0.379323 3.51093
rclavicle 9.44227e-016 -1.43125e-014
rhumerus 38.9632 -14.1573 -60.7582
rradius 71.4909
rwrist 8.63845
rhand 43.0223 -6.66222
rfingers 7.12502
rthumb 64.8482 -14.0898
lclavicle 9.44227e-016 -1.43125e-014
lhumerus 35.4434 8.53166 50.334
lradius 76.4689
lwrist -7.00047
lhand 43.5575 11.4674
lfingers 7.12502
lthumb 65.2704 18.1876
rfemur -26.5868 -14.5594 6.36313
rtibia 51.547
rfoot -18.6385 -17.151
rtoes -10.7369
lfemur -31.5875 3.60186 -11.2686
ltibia 52.6239
lfoot -18.6021 6.85807
ltoes -12.4362
226
root 8.03604 15.5683 30.033 -177.26 -8.41873 178.455
lowerback 11.2976 -0.62505 0.55718
upperback 3.98287 -1.19874 -1.51064
thorax -2.21933 -0.750663 -1.71899
lowerneck -30.6042 -1.67805 -5.15101
upperneck 16.5661 -2.25702 8.35762
head 10.4351 -0.331954 3.49262
rclavicle 2.14687e-014 4.37326e-015
rhumerus 38.9821 -14.1812 -60.7839
rradius 71.4982
rwrist 8.62436
rhand 43.0397 -6.68203
rfingers 7.12502
rthumb 64.862 -14.087
lclavicle 2.14687e-014 4.37326e-015
lhumerus 35.4554 8.54513 50.3606
lradius 76.4702
lwrist -6.98001
lhand 43.6211 11.4767
lfingers 7.12502
lthumb 65.3203 18.1113
rfemur -26.5801 -14.5645 6.35809
rtibia 51.5774
rfoot -18.6633 -17.1451
rtoes -10.6847
lfemur -31.5913 3.59419 -11.2653
ltibia 52.6668
lfoot -18.6302 6.87703
ltoes -12.403
227
root 8.03479 15.5658 30.0285 -177.26 -8.4255 178.458
lowerback 11.3071 -0.626855 0.564906
upperback 3.97867 -1.20006 -1.51107
thorax -2.22911 -0.751231 -1.72344
lowerneck -30.7376 -1.52827 -4.98311
upperneck 16.6343 -2.09097 8.22754
head 10.4651 -0.257727 3.44893
rclavicle 9.93923e-016 3.57812e-015
rhumerus 39.0063 -14.2037 -60.8088
rradius 71.5021
rwrist 8.61283
rhand 43.0507 -6.6937
rfingers 7.12502
rthumb 64.8707 -14.0844
lclavicle 9.93923e-016 3.57812e-015
lhumerus 35.4654 8.56252 50.3896
lradius 76.4728
lwrist -6.95802
lhand 43.6726 11.4724
lfingers 7.12502
lthumb 65.3606 18.0372
rfemur -26.5766 -14.5727 6.35171
rtibia 51.6135
rfoot -18.6894 -17.1364
rtoes -10.6258
lfemur -31.5981 3.58366 -11.2624
ltibia 52.7147
lfoot -18.6618 6.89283
ltoes -12.3486
228
root 8.03345 15.5629 30.0239 -177.26 -8.43276 178.459
lowerback 11.315 -0.628844 0.57194
upperback 3.97397 -1.2016 -1.51136
thorax -2.23848 -0.75187 -1.72736
lowerneck -30.9116 -1.33996 -4.76143
upperneck 16.7292 -1.8831 8.04739
head 10.5076 -0.166111 3.38641
rclavicle -3.26007e-014 -2.42517e-014
rhumerus 39.0296 -14.2247 -60.8322
rradius 71.5054
rwrist 8.60265
rhand 43.0544 -6.70099
rfingers 7.12502
rthumb 64.8736 -14.0869
lclavicle -3.26007e-014 -2.42517e-014
lhumerus 35.4705 8.5807 50.4203
lradius 76.4773
lwrist -6.93462
lhand 43.7318 11.4895
lfingers 7.12502
lthumb 65.407 17.9739
rfemur -26.576 -14.5867 6.34275
rtibia 51.6538
rfoot -18.7147 -17.1247
rtoes -10.5738
lfemur -31.607 3.57278 -11.2617
ltibia 52.7662
lfoot -18.6956 6.90638
ltoes -12.2857
229
root 8.032 15.5598 30.0193 -177.259 -8.43695 178.459
lowerback 11.3228 -0.629681 0.579061
upperback 3.96826 -1.20147 -1.511
thorax -2.24874 -0.751638 -1.73085
lowerneck -31.1308 -1.10627 -4.48517
upperneck 16.8456 -1.62541 7.82006
head 10.5617 -0.0532712 3.3074
rclavicle 2.11706e-014 1.25234e-014
rhumerus 39.0523 -14.2442 -60.8548
rradius 71.5078
rwrist 8.59776
rhand 43.0572 -6.70738
rfingers 7.12502
rthumb 64.8759 -14.0896
lclavicle 2.11706e-014 1.25234e-014
lhumerus 35.4709 8.59921 50.4547
lradius 76.483
lwrist -6.91278
lhand 43.7862 11.5127
lfingers 7.12502
lthumb 65.4495 17.923
rfemur -26.5796 -14.6021 6.33256
rtibia 51.6992
rfoot -18.7393 -17.1097
rtoes -10.5283
lfemur -31.6179 3.56297 -11.2623
ltibia 52.8223
lfoot -18.7284 6.9263
ltoes -12.2258
230
root 8.03048 15.557 30.0147 -177.257 -8.43964 178.457
lowerback 11.3284 -0.629731 0.583746
upperback 3.96149 -1.20033 -1.50928
thorax -2.25884 -0.75085 -1.73172
lowerneck -31.2712 -0.888312 -4.24372
upperneck 16.9841 -1.37348 7.58365
head 10.6129 0.0526897 3.22952
rclavicle -6.26172e-015 7.35503e-015
rhumerus 39.0754 -14.2623 -60.8763
rradius 71.5093
rwrist 8.59983
rhand 43.0558 -6.71141
rfingers 7.12502
rthumb 64.8747 -14.0955
lclavicle -6.26172e-015 7.35503e-015
lhumerus 35.4677 8.61935 50.4964
lradius 76.49
lwrist -6.89532
lhand 43.8467 11.5552
lfingers 7.12502
lthumb 65.4968 17.8827
rfemur -26.5866 -14.6201 6.32078
rtibia 51.7477
rfoot -18.7613 -17.0958
rtoes -10.5
lfemur -31.63 3.55459 -11.2655
ltibia 52.881
lfoot -18.7632 6.94576
ltoes -12.159
231
root 8.02879 15.5534 30.0099 -177.254 -8.43835 178.453
lowerback 11.3311 -0.627404 0.586818
upperback 3.95448 -1.19614 -1.50744
thorax -2.26748 -0.748509 -1.73199
lowerneck -31.3388 -0.668203 -4.03514
upperneck 17.0915 -1.1097 7.36807
head 10.6416 0.162883 3.16519
rclavicle 2.02263e-014 -3.37934e-015
rhumerus 39.0958 -14.2795 -60.8936
rradius 71.5105
rwrist 8.6066
rhand 43.0471 -6.71606
rfingers 7.12502
rthumb 64.8678 -14.1115
lclavicle 2.02263e-014 -3.37934e-015
lhumerus 35.466 8.63854 50.546
lradius 76.496
lwrist -6.88629
lhand 43.9165 11.6119
lfingers 7.12502
lthumb 65.5512 17.8435
rfemur -26.5989 -14.6391 6.30487
rtibia 51.8027
rfoot -18.7806 -17.0799
rtoes -10.482
lfemur -31.6453 3.54819 -11.2716
ltibia 52.9463
lfoot -18.7972 6.97055
ltoes -12.1011
232
root 8.02698 15.5497 30.0048 -177.253 -8.43302 178.45
lowerback 11.3292 -0.622126 0.592467
upperback 3.94869 -1.18773 -1.50514
thorax -2.27221 -0.744042 -1.73387
lowerneck -31.4212 -0.41414 -3.79384
upperneck 17.212 -0.806627 7.12347
head 10.676 0.289663 3.09223
rclavicle 1.44616e-014 7.95139e-015
rhumerus 39.1142 -14.299 -60.9078
rradius 71.5099
rwrist 8.61882
rhand 43.0367 -6.71734
rfingers 7.12502
rthumb 64.8596 -14.1262
lclavicle 1.44616e-014 7.95139e-015
lhumerus 35.4696 8.65529 50.6044
lradius 76.5013
lwrist -6.88615
lhand 43.977 11.6624
lfingers 7.12502
lthumb 65.5984 17.8105
rfemur -26.6126 -14.6555 6.28951
rtibia 51.862
rfoot -18.8038 -17.0604
rtoes -10.454
lfemur -31.6605 3.54407 -11.2764
ltibia 53.0163
lfoot -18.8326 6.9991
ltoes -12.0396
233
root 8.02505 15.5458 29.9996 -177.254 -8.4224 178.449
lowerback 11.3238 -0.613009 0.600848
upperback 3.94379 -1.17391 -1.50233
thorax -2.27399 -0.736864 -1.73753
lowerneck -31.4812 -0.141537 -3.54996
upperneck 17.3255 -0.479029 6.87715
head 10.7044 0.426958 3.0221
rclavicle 2.03754e-014 4.17448e-015
rhumerus 39.1266 -14.3206 -60.9149
rradius 71.5098
rwrist 8.63021
rhand 43.0204 -6.72102
rfingers 7.12502
rthumb 64.8467 -14.1511
lclavicle 2.03754e-014 4.17448e-015
lhumerus 35.4794 8.6673 50.6701
lradius 76.5033
lwrist -6.89613
lhand 44.0266 11.6923
lfingers 7.12502
lthumb 65.637 17.7717
rfemur -26.627 -14.6676 6.27516
rtibia 51.9264
rfoot -18.8319 -17.0373
rtoes -10.4154
lfemur -31.6745 3.5425 -11.2789
ltibia 53.0921
lfoot -18.8703 7.03039
ltoes -11.9654
234
root 8.02302 15.5416 29.9941 -177.26 -8.40534 178.45
lowerback 11.3184 -0.599841 0.61301
upperback 3.93947 -1.15437 -1.49971
thorax -2.27495 -0.726849 -1.74429
lowerneck -31.5241 0.145648 -3.30669
upperneck 17.4354 -0.131551 6.6319
head 10.7292 0.572915 2.95569
rclavicle 1.16786e-014 -8.15017e-015
rhumerus 39.1319 -14.3445 -60.9134
rradius 71.5098
rwrist 8.63836
rhand 43.0122 -6.7214
rfingers 7.12502
rthumb 64.8402 -14.1622
lclavicle 1.16786e-014 -8.15017e-015
lhumerus 35.4937 8.67207 50.7374
lradius 76.5014
lwrist -6.91537
lhand 44.071 11.7057
lfingers 7.12502
lthumb 65.6715 17.7235
rfemur -26.6392 -14.6741 6.26194
rtibia 51.994
rfoot -18.8654 -17.0115
rtoes -10.3596
lfemur -31.6834 3.54445 -11.2789
ltibia 53.1716
lfoot -18.9107 7.06506
ltoes -11.897
